<mxfile host="65bd71144e">
    <diagram id="CL3Lui0rCL7jPcOjvXLi" name="Page-1">
        <mxGraphModel dx="2008" dy="1131" grid="1" gridSize="10" guides="1" tooltips="1" connect="1" arrows="1" fold="1" page="0" pageScale="1" pageWidth="850" pageHeight="1100" math="0" shadow="0">
            <root>
                <mxCell id="0"/>
                <mxCell id="1" parent="0"/>
                <mxCell id="4" value="" style="edgeStyle=none;html=1;" parent="1" source="2" target="3" edge="1">
                    <mxGeometry relative="1" as="geometry">
                        <Array as="points">
                            <mxPoint x="-240" y="540"/>
                        </Array>
                    </mxGeometry>
                </mxCell>
                <mxCell id="2" value="App" style="rounded=1;whiteSpace=wrap;html=1;fontSize=20;" parent="1" vertex="1">
                    <mxGeometry x="-270" y="510" width="120" height="60" as="geometry"/>
                </mxCell>
                <mxCell id="32" value="" style="edgeStyle=orthogonalEdgeStyle;html=1;fontSize=20;entryX=0.02;entryY=0.459;entryDx=0;entryDy=0;entryPerimeter=0;" parent="1" source="3" target="7" edge="1">
                    <mxGeometry relative="1" as="geometry">
                        <mxPoint x="230" y="400" as="targetPoint"/>
                        <Array as="points">
                            <mxPoint x="160" y="540"/>
                            <mxPoint x="160" y="377"/>
                        </Array>
                    </mxGeometry>
                </mxCell>
                <mxCell id="3" value="Default / Normal User" style="whiteSpace=wrap;html=1;rounded=1;fontSize=20;" parent="1" vertex="1">
                    <mxGeometry x="-100" y="510" width="120" height="60" as="geometry"/>
                </mxCell>
                <mxCell id="7" value="Home page" style="rhombus;whiteSpace=wrap;html=1;fontSize=20;rounded=1;" parent="1" vertex="1">
                    <mxGeometry x="310" y="340" width="160" height="80" as="geometry"/>
                </mxCell>
                <mxCell id="10" value="Introduce" style="rhombus;whiteSpace=wrap;html=1;fontSize=20;rounded=1;" parent="1" vertex="1">
                    <mxGeometry x="310" y="420" width="160" height="80" as="geometry"/>
                </mxCell>
                <mxCell id="49" value="" style="edgeStyle=orthogonalEdgeStyle;html=1;fontSize=20;" parent="1" source="15" target="48" edge="1">
                    <mxGeometry relative="1" as="geometry"/>
                </mxCell>
                <mxCell id="15" value="Product" style="rhombus;whiteSpace=wrap;html=1;fontSize=20;rounded=1;" parent="1" vertex="1">
                    <mxGeometry x="310" y="500" width="160" height="80" as="geometry"/>
                </mxCell>
                <mxCell id="20" value="Contact" style="rhombus;whiteSpace=wrap;html=1;fontSize=20;rounded=1;" parent="1" vertex="1">
                    <mxGeometry x="310" y="580" width="160" height="80" as="geometry"/>
                </mxCell>
                <mxCell id="22" value="News" style="rhombus;whiteSpace=wrap;html=1;fontSize=20;rounded=1;" parent="1" vertex="1">
                    <mxGeometry x="310" y="660" width="160" height="80" as="geometry"/>
                </mxCell>
                <mxCell id="34" value="" style="edgeStyle=orthogonalEdgeStyle;html=1;fontSize=20;entryX=0;entryY=0.5;entryDx=0;entryDy=0;exitX=1;exitY=0.5;exitDx=0;exitDy=0;" parent="1" source="3" target="10" edge="1">
                    <mxGeometry relative="1" as="geometry">
                        <mxPoint x="90" y="550" as="sourcePoint"/>
                        <mxPoint x="285.70000000000005" y="406.72" as="targetPoint"/>
                        <Array as="points">
                            <mxPoint x="160" y="540"/>
                            <mxPoint x="160" y="460"/>
                        </Array>
                    </mxGeometry>
                </mxCell>
                <mxCell id="35" value="" style="edgeStyle=orthogonalEdgeStyle;html=1;fontSize=20;entryX=0;entryY=0.5;entryDx=0;entryDy=0;exitX=1;exitY=0.5;exitDx=0;exitDy=0;" parent="1" source="3" target="15" edge="1">
                    <mxGeometry relative="1" as="geometry">
                        <mxPoint x="100" y="560" as="sourcePoint"/>
                        <mxPoint x="295.70000000000005" y="416.72" as="targetPoint"/>
                        <Array as="points">
                            <mxPoint x="310" y="540"/>
                        </Array>
                    </mxGeometry>
                </mxCell>
                <mxCell id="39" value="" style="edgeStyle=orthogonalEdgeStyle;html=1;fontSize=20;entryX=0;entryY=0.5;entryDx=0;entryDy=0;exitX=1;exitY=0.5;exitDx=0;exitDy=0;" parent="1" source="3" target="20" edge="1">
                    <mxGeometry relative="1" as="geometry">
                        <mxPoint x="80" y="540" as="sourcePoint"/>
                        <mxPoint x="305.70000000000005" y="426.72" as="targetPoint"/>
                        <Array as="points">
                            <mxPoint x="160" y="540"/>
                            <mxPoint x="160" y="620"/>
                        </Array>
                    </mxGeometry>
                </mxCell>
                <mxCell id="40" value="" style="edgeStyle=orthogonalEdgeStyle;html=1;fontSize=20;exitX=1;exitY=0.5;exitDx=0;exitDy=0;" parent="1" source="3" target="22" edge="1">
                    <mxGeometry relative="1" as="geometry">
                        <mxPoint x="80" y="540" as="sourcePoint"/>
                        <mxPoint x="315.70000000000005" y="436.72" as="targetPoint"/>
                        <Array as="points">
                            <mxPoint x="160" y="540"/>
                            <mxPoint x="160" y="700"/>
                        </Array>
                    </mxGeometry>
                </mxCell>
                <mxCell id="45" value="" style="edgeStyle=orthogonalEdgeStyle;html=1;fontSize=20;" parent="1" source="42" target="44" edge="1">
                    <mxGeometry relative="1" as="geometry"/>
                </mxCell>
                <mxCell id="42" value="Admin" style="whiteSpace=wrap;html=1;fontSize=20;rounded=1;" parent="1" vertex="1">
                    <mxGeometry x="20" y="240" width="120" height="60" as="geometry"/>
                </mxCell>
                <mxCell id="44" value="Manager page" style="rhombus;whiteSpace=wrap;html=1;fontSize=20;rounded=1;" parent="1" vertex="1">
                    <mxGeometry x="280" y="230" width="220" height="80" as="geometry"/>
                </mxCell>
                <mxCell id="52" value="" style="edgeStyle=orthogonalEdgeStyle;html=1;fontSize=20;exitX=1;exitY=0.5;exitDx=0;exitDy=0;" parent="1" source="15" target="51" edge="1">
                    <mxGeometry relative="1" as="geometry">
                        <Array as="points">
                            <mxPoint x="530" y="540"/>
                            <mxPoint x="530" y="600"/>
                        </Array>
                    </mxGeometry>
                </mxCell>
                <mxCell id="56" value="" style="edgeStyle=orthogonalEdgeStyle;html=1;fontSize=20;entryX=0;entryY=0.5;entryDx=0;entryDy=0;" parent="1" source="48" target="53" edge="1">
                    <mxGeometry relative="1" as="geometry">
                        <mxPoint x="860.0000000000005" y="480" as="targetPoint"/>
                        <Array as="points">
                            <mxPoint x="820" y="480"/>
                            <mxPoint x="820" y="540"/>
                        </Array>
                    </mxGeometry>
                </mxCell>
                <mxCell id="48" value="Detail Products" style="rhombus;whiteSpace=wrap;html=1;fontSize=20;rounded=1;" parent="1" vertex="1">
                    <mxGeometry x="580" y="440" width="180" height="80" as="geometry"/>
                </mxCell>
                <mxCell id="54" value="" style="edgeStyle=orthogonalEdgeStyle;html=1;fontSize=20;" parent="1" source="51" target="53" edge="1">
                    <mxGeometry relative="1" as="geometry">
                        <Array as="points">
                            <mxPoint x="820" y="600"/>
                            <mxPoint x="820" y="540"/>
                        </Array>
                    </mxGeometry>
                </mxCell>
                <mxCell id="51" value="Checkout" style="rhombus;whiteSpace=wrap;html=1;fontSize=20;rounded=1;" parent="1" vertex="1">
                    <mxGeometry x="570" y="560" width="180" height="80" as="geometry"/>
                </mxCell>
                <mxCell id="53" value="Payment" style="rhombus;whiteSpace=wrap;html=1;fontSize=20;rounded=1;" parent="1" vertex="1">
                    <mxGeometry x="860" y="500" width="170" height="80" as="geometry"/>
                </mxCell>
                <mxCell id="59" value="" style="endArrow=classic;html=1;fontSize=20;exitX=0.5;exitY=0;exitDx=0;exitDy=0;entryX=0;entryY=0.5;entryDx=0;entryDy=0;" parent="1" source="3" target="42" edge="1">
                    <mxGeometry width="50" height="50" relative="1" as="geometry">
                        <mxPoint x="180" y="470" as="sourcePoint"/>
                        <mxPoint x="230" y="420" as="targetPoint"/>
                        <Array as="points">
                            <mxPoint x="-40" y="270"/>
                        </Array>
                    </mxGeometry>
                </mxCell>
                <mxCell id="62" value="" style="endArrow=none;html=1;fontSize=20;entryX=0.5;entryY=1;entryDx=0;entryDy=0;" parent="1" target="42" edge="1">
                    <mxGeometry width="50" height="50" relative="1" as="geometry">
                        <mxPoint x="80" y="540" as="sourcePoint"/>
                        <mxPoint x="340" y="420" as="targetPoint"/>
                    </mxGeometry>
                </mxCell>
            </root>
        </mxGraphModel>
    </diagram>
</mxfile>